<?xml version="1.0" standalone="no"?><!DOCTYPE svg PUBLIC "-//W3C//DTD SVG 1.1//EN" "http://www.w3.org/Graphics/SVG/1.1/DTD/svg11.dtd"><svg t="1644846168831" class="icon" viewBox="0 0 1030 1024" version="1.1" xmlns="http://www.w3.org/2000/svg" p-id="2914" xmlns:xlink="http://www.w3.org/1999/xlink" width="201.171875" height="200"><defs><style type="text/css"></style></defs><path d="M762.01536 632.704c35.264 6.08 63.872 149.376 115.712 81.088 62.656-82.752 107.712-168.96 141.184-285.44 61.312-212.736-255.104-42.048-145.472-52.928 85.632-8.512-20.096 229.632-107.52 196.544" fill="#1296db" p-id="2915"></path><path d="M606.43136 76.672c-4.48-8.704-22.272-16.384-33.344 5.12-25.92 50.304-64.128 94.016-47.04 304.192L772.06336 640s4.736-235.136-165.632-563.328zM781.72736 728.064L441.88736 370.624a150.208 150.208 0 0 1-14.336 0.768c-81.92 0-148.416-69.568-148.416-155.264 0-4.992 0.32-9.984 0.768-14.976l-58.624-61.312c-36.224-37.888-91.904-33.92-116.992-5.952L14.81536 226.112c-23.744 23.744-16.832 95.104 8.704 120.576l560.448 588.224c36.224 37.952 100.288 32.512 143.04-12.224l42.944-45.056c42.752-44.608 48.064-111.68 11.776-149.568z m-111.936 148.608a49.28 49.28 0 0 1-48.64-49.856 49.28 49.28 0 0 1 48.64-49.984c27.136 0 48.896 22.4 48.896 49.984a49.28 49.28 0 0 1-48.896 49.856z" fill="#1296db" p-id="2916"></path></svg>